<svg xmlns="http://www.w3.org/2000/svg" style="display:none">
  <symbol id="home" viewBox="0 0 24 24">
    <path d="M3 11l9-7 9 7v9a2 2 0 0 1-2 2h-4v-6H9v6H5a2 2 0 0 1-2-2v-9z" fill="currentColor"/>
  </symbol>
  <symbol id="stats" viewBox="0 0 24 24">
    <path d="M4 20h16v2H4zM6 10h3v8H6zM11 6h3v12h-3zM16 13h3v5h-3z" fill="currentColor"/>
  </symbol>
  <symbol id="user" viewBox="0 0 24 24">
    <path d="M12 12a5 5 0 1 0-5-5 5 5 0 0 0 5 5zm0 2c-5 0-9 2.5-9 5v1h18v-1c0-2.5-4-5-9-5z" fill="currentColor"/>
  </symbol>
</svg>
