<svg xmlns="http://www.w3.org/2000/svg" style="display:none">
  <symbol id="home" viewBox="0 0 24 24" fill="none" stroke="currentColor" stroke-width="2" stroke-linecap="round" stroke-linejoin="round">
    <path d="M3 9.5 12 3l9 6.5V21a1 1 0 0 1-1 1h-5v-7H9v7H4a1 1 0 0 1-1-1V9.5z" />
  </symbol>
  <symbol id="stats" viewBox="0 0 24 24" fill="none" stroke="currentColor" stroke-width="2" stroke-linecap="round" stroke-linejoin="round">
    <path d="M4 21V9m5 12V3m5 18v-6m5 6v-9" />
  </symbol>
  <symbol id="user" viewBox="0 0 24 24" fill="none" stroke="currentColor" stroke-width="2" stroke-linecap="round" stroke-linejoin="round">
    <circle cx="12" cy="8" r="4" />
    <path d="M6 21v-2a4 4 0 0 1 4-4h4a4 4 0 0 1 4 4v2" />
  </symbol>
</svg>
